<?xml version="1.0" encoding="UTF-8"?>
<!-- Generator: Adobe Illustrator 24.2.0, SVG Export Plug-In . SVG Version: 6.00 Build 0)  -->
<svg xmlns="http://www.w3.org/2000/svg" xmlns:xlink="http://www.w3.org/1999/xlink" version="1.1" id="Layer_1" x="0px" y="0px" width="219" height="219" viewBox="0 0 219 219" style="enable-background:new 0 0 219 219;" xml:space="preserve">
<style type="text/css">
	.st0{fill:url(#SVGID_1_);}
	.st1{fill:url(#SVGID_2_);fill-opacity:0.9;}
	.st2{fill:url(#SVGID_3_);fill-opacity:0.85;}
</style>
<g>
	
		<radialGradient id="SVGID_1_" cx="-903.7552" cy="4099.1797" r="1" gradientTransform="matrix(106.6378 -181.3636 -216.7982 -127.4726 985166.8125 358860.7188)" gradientUnits="userSpaceOnUse">
		<stop offset="0.4538" style="stop-color:#FFD953"></stop>
		<stop offset="0.7411" style="stop-color:#FBAB33"></stop>
		<stop offset="1" style="stop-color:#EF8523"></stop>
	</radialGradient>
	<path class="st0" d="M56.8,46.8H209c5.5,0,10,4.5,10,10V209c0,5.5-4.5,10-10,10H56.8c-5.5,0-10-4.5-10-10V56.8   C46.8,51.3,51.3,46.8,56.8,46.8z"></path>
</g>
<g>
	
		<radialGradient id="SVGID_2_" cx="-903.7552" cy="4099.1797" r="1" gradientTransform="matrix(106.6378 -181.3636 -216.7982 -127.4726 985144.0625 358837.9375)" gradientUnits="userSpaceOnUse">
		<stop offset="0" style="stop-color:#7FDDDD"></stop>
		<stop offset="0.4538" style="stop-color:#7FDDDD"></stop>
		<stop offset="0.7411" style="stop-color:#33D2C9"></stop>
		<stop offset="1" style="stop-color:#1AA9E8"></stop>
	</radialGradient>
	<path shape-rendering="crispEdges" class="st1" d="M34,24h152.2c5.5,0,10,4.5,10,10v152.2c0,5.5-4.5,10-10,10H34   c-5.5,0-10-4.5-10-10V34C24,28.5,28.5,24,34,24z"></path>
</g>
<g>
	
		<radialGradient id="SVGID_3_" cx="-903.7521" cy="4099.1821" r="1" gradientTransform="matrix(106.6622 -181.405 -216.8465 -127.501 985340.125 358893.7812)" gradientUnits="userSpaceOnUse">
		<stop offset="0" style="stop-color:#FCACF1"></stop>
		<stop offset="0.4538" style="stop-color:#FCACF1"></stop>
		<stop offset="0.7411" style="stop-color:#FE9887"></stop>
		<stop offset="1" style="stop-color:#EF4225"></stop>
	</radialGradient>
	<path shape-rendering="crispEdges" class="st2" d="M10,0h152.2c5.5,0,10,4.5,10,10v152.2c0,5.5-4.5,10-10,10H10   c-5.5,0-10-4.5-10-10V10C0,4.5,4.5,0,10,0z"></path>
</g>
</svg>
