<?xml version="1.0" encoding="UTF-8"?>
<!-- Generator: Adobe Illustrator 24.2.0, SVG Export Plug-In . SVG Version: 6.00 Build 0)  -->
<svg xmlns="http://www.w3.org/2000/svg" xmlns:xlink="http://www.w3.org/1999/xlink" version="1.1" id="Layer_1" x="0px" y="0px" width="193" height="198.9" viewBox="0 0 193 198.9" style="enable-background:new 0 0 193 198.9;" xml:space="preserve">
<style type="text/css">
	.st0{fill:url(#SVGID_1_);}
	.st1{fill:url(#SVGID_2_);fill-opacity:0.9;}
	.st2{fill:url(#SVGID_3_);fill-opacity:0.85;}
</style>
<g>
	
		<radialGradient id="SVGID_1_" cx="-917.7767" cy="4089.1021" r="1" gradientTransform="matrix(106.5202 -181.1462 -216.5481 -127.3378 983320.5625 354634.125)" gradientUnits="userSpaceOnUse">
		<stop offset="0.4538" style="stop-color:#FFD953"></stop>
		<stop offset="0.7411" style="stop-color:#FBAB33"></stop>
		<stop offset="1" style="stop-color:#EF8523"></stop>
	</radialGradient>
	<path class="st0" d="M31,0h152c5.5,0,10,4.5,10,10v152c0,5.5-4.5,10-10,10H31c-5.5,0-10-4.5-10-10V10C21,4.5,25.5,0,31,0z"></path>
</g>
<g>
	
		<radialGradient id="SVGID_2_" cx="-921.7827" cy="4085.9341" r="1" gradientTransform="matrix(82.529 -140.3473 -167.7756 -98.6578 761632.9375 273906.125)" gradientUnits="userSpaceOnUse">
		<stop offset="0" style="stop-color:#7FDDDD"></stop>
		<stop offset="0.4538" style="stop-color:#7FDDDD"></stop>
		<stop offset="0.7411" style="stop-color:#33D2C9"></stop>
		<stop offset="1" style="stop-color:#1AA9E8"></stop>
	</radialGradient>
	<path shape-rendering="crispEdges" class="st1" d="M10,20.1h113.3c5.5,0,10,4.5,10,10v113.3c0,5.5-4.5,10-10,10H10   c-5.5,0-10-4.5-10-10V30.1C0,24.6,4.5,20.1,10,20.1z"></path>
</g>
<g>
	
		<linearGradient id="SVGID_3_" gradientUnits="userSpaceOnUse" x1="2004.6899" y1="1296.7826" x2="2037.9177" y2="1302.1146" gradientTransform="matrix(-0.5 0.866 -0.866 -0.5 2240.7083 -949.1168)">
		<stop offset="0" style="stop-color:#FCACF1"></stop>
		<stop offset="0.4538" style="stop-color:#FCACF1"></stop>
		<stop offset="0.6171" style="stop-color:#FE9887"></stop>
		<stop offset="1" style="stop-color:#EF4225"></stop>
	</linearGradient>
	<path shape-rendering="crispEdges" class="st2" d="M30,108.9L30,108.9c-2.2,3.8-0.9,8.7,2.9,10.9l135.1,78   c3.8,2.2,8.7,0.9,10.9-2.9l0,0c2.2-3.8,0.9-8.7-2.9-10.9L40.9,106C37.1,103.8,32.2,105.1,30,108.9z"></path>
</g>
</svg>
